<?xml version="1.0" encoding="UTF-8" standalone="no"?>
<!-- Created with Inkscape (http://www.inkscape.org/) -->

<svg
   xmlns:dc="http://purl.org/dc/elements/1.1/"
   xmlns:cc="http://creativecommons.org/ns#"
   xmlns:rdf="http://www.w3.org/1999/02/22-rdf-syntax-ns#"
   xmlns:svg="http://www.w3.org/2000/svg"
   xmlns="http://www.w3.org/2000/svg"
   xmlns:sodipodi="http://sodipodi.sourceforge.net/DTD/sodipodi-0.dtd"
   xmlns:inkscape="http://www.inkscape.org/namespaces/inkscape"
   width="744.09448819"
   height="744.09448819"
   id="svg8389"
   version="1.1"
   inkscape:version="0.92.3 (2405546, 2018-03-11)"
   sodipodi:docname="1538419097.svg">
  <defs
     id="defs8391" />
  <sodipodi:namedview
     id="base"
     pagecolor="#ffffff"
     bordercolor="#666666"
     borderopacity="1.0"
     inkscape:pageopacity="0.0"
     inkscape:pageshadow="2"
     inkscape:zoom="0.7"
     inkscape:cx="373.96629"
     inkscape:cy="339.24443"
     inkscape:document-units="px"
     inkscape:current-layer="g8183"
     showgrid="false"
     inkscape:window-width="1920"
     inkscape:window-height="1035"
     inkscape:window-x="0"
     inkscape:window-y="445"
     inkscape:window-maximized="0" />
  <metadata
     id="metadata8394">
    <rdf:RDF>
      <cc:Work
         rdf:about="">
        <dc:format>image/svg+xml</dc:format>
        <dc:type
           rdf:resource="http://purl.org/dc/dcmitype/StillImage" />
        <dc:title></dc:title>
      </cc:Work>
    </rdf:RDF>
  </metadata>
  <g
     inkscape:label="Layer 1"
     inkscape:groupmode="layer"
     id="layer1">
    <g
       transform="translate(80.538081,-1683.0499)"
       id="g8183">
      <rect
         y="2190.4761"
         x="-714.0116"
         height="25.471767"
         width="44.575592"
         id="rect3610-8"
         style="fill:#502d16;fill-opacity:1;fill-rule:nonzero;stroke:none" />
      <rect
         style="fill:#502d16;fill-opacity:1;fill-rule:nonzero;stroke:none"
         id="rect3612-6"
         width="44.575592"
         height="25.471767"
         x="-651.35925"
         y="2190.4761" />
      <rect
         style="fill:#502d16;fill-opacity:1;fill-rule:nonzero;stroke:none"
         id="rect3614-8"
         width="44.575592"
         height="25.471767"
         x="-588.70691"
         y="2190.4761" />
      <rect
         y="2190.4761"
         x="-526.05457"
         height="25.471767"
         width="44.575592"
         id="rect3616-8"
         style="fill:#502d16;fill-opacity:1;fill-rule:nonzero;stroke:none" />
      <rect
         style="fill:#502d16;fill-opacity:1;fill-rule:nonzero;stroke:none"
         id="rect3618-4"
         width="44.575592"
         height="25.471767"
         x="-463.40231"
         y="2190.4761" />
      <rect
         y="2190.4761"
         x="-400.75"
         height="25.471767"
         width="44.575592"
         id="rect3620-3"
         style="fill:#502d16;fill-opacity:1;fill-rule:nonzero;stroke:none" />
      <rect
         y="2190.4761"
         x="-338.09766"
         height="25.471767"
         width="44.575592"
         id="rect3622-1"
         style="fill:#502d16;fill-opacity:1;fill-rule:nonzero;stroke:none" />
      <rect
         style="fill:#502d16;fill-opacity:1;fill-rule:nonzero;stroke:none"
         id="rect3624-4"
         width="44.575592"
         height="25.471767"
         x="-275.44534"
         y="2190.4761" />
      <rect
         style="fill:#502d16;fill-opacity:1;fill-rule:nonzero;stroke:none"
         id="rect3626-9"
         width="44.575592"
         height="25.471767"
         x="-212.79295"
         y="2190.4761" />
      <rect
         y="2190.4761"
         x="-150.14066"
         height="25.471767"
         width="44.575592"
         id="rect3628-2"
         style="fill:#502d16;fill-opacity:1;fill-rule:nonzero;stroke:none" />
      <rect
         y="2190.4761"
         x="-87.488312"
         height="25.471767"
         width="44.575592"
         id="rect3630-0"
         style="fill:#502d16;fill-opacity:1;fill-rule:nonzero;stroke:none" />
      <rect
         style="fill:#502d16;fill-opacity:1;fill-rule:nonzero;stroke:none"
         id="rect3632-6"
         width="44.575592"
         height="25.471767"
         x="-24.835972"
         y="2190.4761" />
      <rect
         y="2190.4761"
         x="37.816372"
         height="25.471767"
         width="44.575592"
         id="rect3634-8"
         style="fill:#502d16;fill-opacity:1;fill-rule:nonzero;stroke:none" />
      <rect
         style="fill:#502d16;fill-opacity:1;fill-rule:nonzero;stroke:none"
         id="rect3636-9"
         width="44.575592"
         height="25.471767"
         x="100.46872"
         y="2190.4761" />
      <rect
         style="fill:#502d16;fill-opacity:1;fill-rule:nonzero;stroke:none"
         id="rect3638-2"
         width="44.575592"
         height="25.471767"
         x="163.121"
         y="2190.4761" />
      <rect
         y="2190.4761"
         x="225.77335"
         height="25.471767"
         width="44.575592"
         id="rect3640-6"
         style="fill:#502d16;fill-opacity:1;fill-rule:nonzero;stroke:none" />
      <rect
         style="fill:#502d16;fill-opacity:1;fill-rule:nonzero;stroke:none"
         id="rect3642-6"
         width="44.575592"
         height="25.471767"
         x="288.42569"
         y="2190.4761" />
      <rect
         y="2190.4761"
         x="351.07797"
         height="25.471767"
         width="44.575592"
         id="rect3644-4"
         style="fill:#502d16;fill-opacity:1;fill-rule:nonzero;stroke:none" />
      <rect
         y="2190.4761"
         x="413.73032"
         height="25.471767"
         width="44.575592"
         id="rect3646-9"
         style="fill:#502d16;fill-opacity:1;fill-rule:nonzero;stroke:none" />
      <rect
         style="fill:#502d16;fill-opacity:1;fill-rule:nonzero;stroke:none"
         id="rect3648-5"
         width="44.575592"
         height="25.471767"
         x="476.38266"
         y="2190.4761" />
      <rect
         y="2190.4761"
         x="539.03503"
         height="25.471767"
         width="44.575592"
         id="rect3650-0"
         style="fill:#502d16;fill-opacity:1;fill-rule:nonzero;stroke:none" />
      <rect
         style="fill:#502d16;fill-opacity:1;fill-rule:nonzero;stroke:none"
         id="rect3652-4"
         width="44.575592"
         height="25.471767"
         x="601.68738"
         y="2190.4761" />
      <rect
         style="fill:#502d16;fill-opacity:1;fill-rule:nonzero;stroke:none"
         id="rect3654-8"
         width="44.575592"
         height="25.471767"
         x="664.33972"
         y="2190.4761" />
      <rect
         y="2190.4761"
         x="726.99207"
         height="25.471767"
         width="44.575592"
         id="rect3656-7"
         style="fill:#502d16;fill-opacity:1;fill-rule:nonzero;stroke:none" />
      <rect
         y="2190.4761"
         x="789.64441"
         height="25.471767"
         width="44.575592"
         id="rect3658-1"
         style="fill:#502d16;fill-opacity:1;fill-rule:nonzero;stroke:none" />
      <rect
         style="fill:#502d16;fill-opacity:1;fill-rule:nonzero;stroke:none"
         id="rect3660-7"
         width="44.575592"
         height="25.471767"
         x="852.29675"
         y="2190.4761" />
      <rect
         style="fill:#502d16;fill-opacity:1;fill-rule:nonzero;stroke:none"
         id="rect3662-2"
         width="44.575592"
         height="25.471767"
         x="914.9491"
         y="2190.4761" />
      <rect
         y="2190.4761"
         x="977.60132"
         height="25.471767"
         width="44.575592"
         id="rect3664-7"
         style="fill:#502d16;fill-opacity:1;fill-rule:nonzero;stroke:none" />
      <rect
         style="fill:#502d16;fill-opacity:1;fill-rule:nonzero;stroke:none"
         id="rect3666-2"
         width="44.575592"
         height="25.471767"
         x="1040.2537"
         y="2190.4761" />
      <rect
         y="2190.4761"
         x="1102.906"
         height="25.471767"
         width="44.575592"
         id="rect3668-2"
         style="fill:#502d16;fill-opacity:1;fill-rule:nonzero;stroke:none" />
      <rect
         y="2190.4761"
         x="1165.5582"
         height="25.471767"
         width="44.575592"
         id="rect3670-6"
         style="fill:#502d16;fill-opacity:1;fill-rule:nonzero;stroke:none" />
      <rect
         style="fill:#502d16;fill-opacity:1;fill-rule:nonzero;stroke:none"
         id="rect3672-1"
         width="44.575592"
         height="25.471767"
         x="1228.2106"
         y="2190.4761" />
      <rect
         y="2175.4666"
         x="-744.25256"
         height="15.009382"
         width="2047.2798"
         id="rect3674-0"
         style="fill:#666666;fill-opacity:1;fill-rule:nonzero;stroke:none" />
      <path
         inkscape:connector-curvature="0"
         id="path3041-6-70-6"
         d="m 142.84648,2073.4518 68.82732,-20.5971"
         style="fill:none;stroke:#000000;stroke-width:12.64640522;stroke-linecap:butt;stroke-linejoin:miter;stroke-opacity:1" />
      <path
         sodipodi:nodetypes="ccccccccccccc"
         inkscape:connector-curvature="0"
         id="path3479-6"
         d="m 99.586638,1907.7628 11.988222,6.0704 0.58454,15.5481 -2.15181,16.8233 -6.56857,5.5591 -11.583021,3.7327 -8.614243,-5.9775 -10.805969,0.04 -4.596119,-17.0092 -4.004987,-13.9541 11.994789,-6.4225 14.412343,-8.3819 z"
         style="fill:#666666;fill-opacity:1;fill-rule:nonzero;stroke:none" />
      <path
         style="fill:#333333;fill-opacity:1;fill-rule:nonzero;stroke:none"
         d="m 17.042099,1916.4463 11.875063,1.6535 4.993667,12.9533 3.05329,14.8217 -3.934808,6.5931 -8.695638,6.503 -9.000545,-2.5516 -9.108655,3.1614 -8.8023421,-13.0254 -7.419133,-10.618 8.2646078,-8.8925 9.7379075,-11.2458 z"
         id="path3481-3"
         inkscape:connector-curvature="0"
         sodipodi:nodetypes="ccccccccccccc" />
      <path
         sodipodi:nodetypes="ccccccccccccc"
         inkscape:connector-curvature="0"
         id="path3469-2"
         d="m 32.821195,1970.5974 -16.632723,-11.4434 2.248282,-23.2683 6.578486,-24.6182 10.895606,-6.9599 17.995738,-3.2346 11.627583,10.6283 16.098003,2.108 3.431822,26.2486 3.164455,21.5808 -19.148384,7.1572 -23.141132,9.5897 z"
         style="fill:#000000;fill-opacity:1;fill-rule:nonzero;stroke:none" />
      <path
         style="fill:#000000;fill-opacity:1;fill-rule:nonzero;stroke:none"
         d="m -72.244003,1967.0433 2.008783,-9.6796 10.929668,-3.401 12.360773,-1.7027 5.209413,3.5972 4.87531,7.5092 -2.59072,7.2656 2.103595,7.6665 -11.196931,6.5306 -9.140742,5.524 -6.864687,-7.285 -8.720421,-8.6256 z"
         id="path3483-0"
         inkscape:connector-curvature="0"
         sodipodi:nodetypes="ccccccccccccc" />
      <path
         sodipodi:nodetypes="ccccccccccccc"
         inkscape:connector-curvature="0"
         id="path3473-6"
         d="m -28.262366,1936.5224 16.232972,-10.0235 19.2506833,9.6169 18.7657097,13.6678 1.859116,11.3791 -4.068287,16.0441 -13.619543,6.1321 -7.961544,12.6869 -23.992594,-5.885 -19.856855,-4.5533 1.118035,-18.3087 0.538748,-22.4393 z"
         style="fill:#666666;fill-opacity:1;fill-rule:nonzero;stroke:none" />
      <path
         style="fill:#333333;fill-opacity:1;fill-rule:nonzero;stroke:none"
         d="m 37.403953,1981.3528 -9.412067,11.1628 -16.588715,-3.2627 -17.2542912,-6.4749 -4.2394318,-8.3341 -1.056245,-13.1813 8.4715903,-7.6179 2.65504056,-11.4377 19.13526314,-0.615 15.756741,-0.7524 3.798129,14.2881 5.26679,17.3339 z"
         id="path3471-1"
         inkscape:connector-curvature="0"
         sodipodi:nodetypes="ccccccccccccc" />
      <path
         sodipodi:nodetypes="ccccccccccccc"
         inkscape:connector-curvature="0"
         id="rect3444-5"
         d="m 71.618975,1944.2608 6.90823,-9.7993 13.802093,1.4929 14.574332,4.0735 4.05909,6.5173 1.7987,10.7083 -6.39021,6.8327 -1.36101,9.5451 -15.610401,1.8599 -12.836775,1.7328 -4.120242,-11.4194 -5.537628,-13.8069 z"
         style="fill:#333333;fill-opacity:1;fill-rule:nonzero;stroke:none" />
      <path
         style="fill:#000000;fill-opacity:1;fill-rule:nonzero;stroke:none"
         d="m 132.76576,1904.3678 16.67784,4.3796 4.92995,19.3475 1.84135,21.6859 -6.7399,8.7469 -13.52355,7.8091 -12.42007,-5.1737 -13.54546,2.9667 -10.356882,-20.0978 -8.790685,-16.4246 13.314077,-11.2947 15.81812,-14.4052 z"
         id="path3465-5"
         inkscape:connector-curvature="0"
         sodipodi:nodetypes="ccccccccccccc" />
      <path
         style="fill:#666666;fill-opacity:1;fill-rule:nonzero;stroke:none"
         d="m 63.595873,1981.0267 -10.676897,5.4548 -11.518877,-7.7487 -11.000532,-10.3919 -0.55702,-7.6578 3.395011,-10.3139 8.83692,-3.0707 5.649519,-7.8131 14.680503,5.6237 12.166796,4.4446 -1.671717,12.0243 -1.529237,14.7972 z"
         id="path3467-4"
         inkscape:connector-curvature="0"
         sodipodi:nodetypes="ccccccccccccc" />
      <path
         style="fill:#333333;fill-opacity:1;fill-rule:nonzero;stroke:none"
         d="m -34.760971,1981.2586 6.402212,10.1372 -6.670189,12.1752 -9.349619,11.8991 -7.575502,1.2504 -10.579699,-2.444 -3.860812,-8.5214 -8.294058,-4.9163 4.266819,-15.1307 3.320885,-12.5203 12.126464,0.5724 14.874938,0.1787 z"
         id="path3477-7"
         inkscape:connector-curvature="0"
         sodipodi:nodetypes="ccccccccccccc" />
      <path
         sodipodi:nodetypes="ccccccccccccc"
         inkscape:connector-curvature="0"
         id="path3475-6"
         d="m -39.10073,1994.4312 -1.296749,-7.6779 7.046711,-5.6244 8.583036,-4.7877 4.852436,1.1484 5.727063,4.1148 0.178703,6.0731 3.73819,5.0236 -6.346994,7.9973 -5.126265,6.6702 -7.122711,-3.3807 -8.868233,-3.8334 z"
         style="fill:#000000;fill-opacity:1;fill-rule:nonzero;stroke:none" />
      <path
         sodipodi:nodetypes="ccccc"
         inkscape:connector-curvature="0"
         id="rect3315-6"
         d="m -78.947473,2001.6579 239.263663,-71.6012 1.01061,148.6637 -159.454875,47.718 z"
         style="fill:#ff0000;fill-opacity:1;fill-rule:nonzero;stroke:none" />
      <path
         style="fill:none;stroke:#000000;stroke-width:5.99999952;stroke-linecap:butt;stroke-linejoin:miter;stroke-opacity:1"
         d="M -7.6398301,2131.5507 172.08323,2077.7673"
         id="path3144-5-93"
         inkscape:connector-curvature="0" />
      <circle
         transform="matrix(0.47816735,-0.14309477,0.14309477,0.47816735,121.56694,1959.1298)"
         id="path3022-5-5"
         style="fill:#000000;fill-opacity:1;fill-rule:nonzero;stroke:none"
         cx="-255.71428"
         cy="309.50504"
         r="61.42857" />
      <circle
         transform="matrix(0.38920598,-0.11647249,0.11647249,0.38920598,107.05798,1993.4715)"
         style="fill:#808080;fill-opacity:1;fill-rule:nonzero;stroke:#ffffff;stroke-width:7.3844347;stroke-linecap:butt;stroke-linejoin:round;stroke-miterlimit:4;stroke-dasharray:none;stroke-opacity:1"
         id="path3024-6-2"
         cx="-255.71428"
         cy="309.50504"
         r="61.42857" />
      <circle
         id="path3026-2-5"
         style="fill:#333333;fill-opacity:1;fill-rule:nonzero;stroke:none"
         transform="matrix(0.15568238,-0.04658899,0.04658899,0.15568238,68.971955,2083.6184)"
         cx="-255.71428"
         cy="309.50504"
         r="61.42857" />
      <circle
         transform="matrix(0.47816735,-0.14309477,0.14309477,0.47816735,212.87562,1931.8051)"
         style="fill:#000000;fill-opacity:1;fill-rule:nonzero;stroke:none"
         id="path3410-7"
         cx="-255.71428"
         cy="309.50504"
         r="61.42857" />
      <circle
         id="path3412-4"
         style="fill:#808080;fill-opacity:1;fill-rule:nonzero;stroke:#ffffff;stroke-width:7.3844347;stroke-linecap:butt;stroke-linejoin:round;stroke-miterlimit:4;stroke-dasharray:none;stroke-opacity:1"
         transform="matrix(0.38920598,-0.11647249,0.11647249,0.38920598,198.36666,1966.1468)"
         cx="-255.71428"
         cy="309.50504"
         r="61.42857" />
      <circle
         transform="matrix(0.15568238,-0.04658899,0.04658899,0.15568238,160.28063,2056.2937)"
         style="fill:#333333;fill-opacity:1;fill-rule:nonzero;stroke:none"
         id="path3414-4"
         cx="-255.71428"
         cy="309.50504"
         r="61.42857" />
      <path
         inkscape:connector-curvature="0"
         id="path3144-5-9-3"
         d="m 44.778699,2143.358 89.632791,-26.8232"
         style="fill:none;stroke:#333333;stroke-width:5.99999952;stroke-linecap:butt;stroke-linejoin:miter;stroke-opacity:1" />
      <path
         sodipodi:nodetypes="ccccccccccccc"
         inkscape:connector-curvature="0"
         id="rect3444-5-6"
         d="m 106.16034,1827.6372 3.799,-5.3889 7.5901,0.821 8.01477,2.2401 2.23219,3.584 0.98915,5.8888 -3.51413,3.7574 -0.74845,5.2491 -8.58453,1.0228 -7.05925,0.9529 -2.26581,-6.2798 -3.04528,-7.5927 z"
         style="fill:#333333;fill-opacity:1;fill-rule:nonzero;stroke:none" />
      <path
         style="fill:#000000;fill-opacity:1;fill-rule:nonzero;stroke:none"
         d="m -37.697595,1877.4951 8.766989,-0.3929 5.320762,8.6571 4.173195,10.2603 -1.953118,5.2697 -5.391478,5.8394 -6.817906,-0.6367 -6.134284,3.4895 -8.071368,-8.2013 -6.755064,-6.6529 4.762825,-7.5017 5.509477,-9.3918 z"
         id="path3483-0-1"
         inkscape:connector-curvature="0"
         sodipodi:nodetypes="ccccccccccccc" />
      <path
         sodipodi:nodetypes="ccccccccccccc"
         inkscape:connector-curvature="0"
         id="path3479-6-5"
         d="m -16.119208,1843.5782 -3.196975,-9.5837 7.909515,-8.6187 10.046312,-7.8533 6.450257,0.5025 8.164371,4.1303 1.442938,7.7499 5.7963,5.6929 -6.53824,11.521 -5.238578,9.5756 -9.80689,-2.9104 -12.134972,-3.1418 z"
         style="fill:#666666;fill-opacity:1;fill-rule:nonzero;stroke:none" />
      <path
         sodipodi:nodetypes="cc"
         inkscape:connector-curvature="0"
         id="path4296"
         d="m 574.60929,1874.3093 c -44.76494,-0.4981 -63.07067,11.3489 -76.34965,49.0212"
         style="fill:none;stroke:#000000;stroke-width:10;stroke-linecap:round;stroke-linejoin:miter;stroke-opacity:1" />
      <path
         style="fill:none;stroke:#000000;stroke-width:10;stroke-linecap:round;stroke-linejoin:miter;stroke-opacity:1"
         d="m 560.15209,1854.0666 c -44.76489,-0.4981 -63.07061,11.3488 -76.34958,49.0211"
         id="path5066"
         inkscape:connector-curvature="0"
         sodipodi:nodetypes="cc" />
      <path
         inkscape:connector-curvature="0"
         id="path3041-6-6"
         d="m 235.44724,2092.8245 49.46303,12.9657"
         style="fill:none;stroke:#000000;stroke-width:12.64640427;stroke-linecap:butt;stroke-linejoin:miter;stroke-opacity:1" />
      <path
         inkscape:connector-curvature="0"
         id="path3041-6-7-2"
         d="m 233.17752,2126.5733 6.86714,-26.1974"
         style="fill:none;stroke:#000000;stroke-width:12.64640427;stroke-linecap:butt;stroke-linejoin:miter;stroke-opacity:1" />
      <rect
         transform="rotate(14.688463)"
         y="1877.871"
         x="798.17261"
         height="115.71428"
         width="348.57144"
         id="rect2985-6"
         style="fill:#ff0000;fill-opacity:1;fill-rule:nonzero;stroke:none" />
      <rect
         transform="rotate(14.688463)"
         style="fill:#ff0000;fill-opacity:1;fill-rule:nonzero;stroke:none"
         id="rect2987-1"
         width="277.14288"
         height="52.85714"
         x="869.6012"
         y="1826.4424" />
      <rect
         transform="rotate(104.68846)"
         style="fill:#ff0000;fill-opacity:1;fill-rule:nonzero;stroke:none"
         id="rect2993-7"
         width="117.26192"
         height="105.71428"
         x="1770.6686"
         y="-918.17261" />
      <rect
         transform="rotate(104.68846)"
         style="fill:#ffffff;fill-opacity:1;fill-rule:nonzero;stroke:none"
         id="rect2989-2"
         width="102.85715"
         height="40.468388"
         x="1785.0732"
         y="-862.6925" />
      <rect
         y="-908.4068"
         x="1785.0732"
         height="40.468388"
         width="102.85715"
         id="rect2991-0"
         style="fill:#ffffff;fill-opacity:1;fill-rule:nonzero;stroke:none"
         transform="rotate(104.68846)" />
      <rect
         transform="rotate(14.688463)"
         y="1763.5852"
         x="789.85217"
         height="9.9999962"
         width="150.92664"
         id="rect3005-2"
         style="fill:#ff0000;fill-opacity:1;fill-rule:nonzero;stroke:none" />
      <path
         style="fill:none;stroke:#000000;stroke-width:5.99999952;stroke-linecap:butt;stroke-linejoin:miter;stroke-opacity:1"
         d="m 266.33375,2133.8545 336.16603,88.1192"
         id="path3144-3"
         inkscape:connector-curvature="0" />
      <path
         sodipodi:nodetypes="ccccc"
         inkscape:connector-curvature="0"
         id="rect3007-5"
         d="m 569.00514,2137.7274 70.47609,18.4739 86.80442,136.4704 -185.17246,-48.5392 z"
         style="fill:#000000;fill-opacity:1;fill-rule:nonzero;stroke:none" />
      <path
         inkscape:connector-curvature="0"
         id="path3010-9"
         d="m 605.07133,2169.6299 62.90387,97.1231"
         style="fill:none;stroke:#ffffff;stroke-width:3;stroke-linecap:butt;stroke-linejoin:miter;stroke-opacity:1" />
      <path
         style="fill:none;stroke:#ffffff;stroke-width:3;stroke-linecap:butt;stroke-linejoin:miter;stroke-opacity:1"
         d="m 623.03582,2174.3389 62.90387,97.1231"
         id="path3012-2"
         inkscape:connector-curvature="0" />
      <path
         inkscape:connector-curvature="0"
         id="path3014-2"
         d="m 638.23655,2178.3235 62.90387,97.1231"
         style="fill:none;stroke:#ffffff;stroke-width:3;stroke-linecap:butt;stroke-linejoin:miter;stroke-opacity:1" />
      <circle
         transform="rotate(14.688463,-7091.6748,3535.2465)"
         id="path3022-9"
         style="fill:#000000;fill-opacity:1;fill-rule:nonzero;stroke:none"
         cx="-255.71428"
         cy="309.50504"
         r="61.42857" />
      <circle
         transform="matrix(0.78735253,0.20638863,-0.20638863,0.78735253,604.02341,1957.3609)"
         style="fill:#808080;fill-opacity:1;fill-rule:nonzero;stroke:#ffffff;stroke-width:3.68571424;stroke-linecap:butt;stroke-linejoin:round;stroke-miterlimit:4;stroke-dasharray:none;stroke-opacity:1"
         id="path3024-7"
         cx="-255.71428"
         cy="309.50504"
         r="61.42857" />
      <circle
         id="path3026-3"
         style="fill:#333333;fill-opacity:1;fill-rule:nonzero;stroke:none"
         transform="matrix(0.31494099,0.08255545,-0.08255545,0.31494099,444.89404,2071.9087)"
         cx="-255.71428"
         cy="309.50504"
         r="61.42857" />
      <circle
         transform="rotate(14.688463,-7165.9607,4111.6066)"
         style="fill:#000000;fill-opacity:1;fill-rule:nonzero;stroke:none"
         id="path3035-1"
         cx="-255.71428"
         cy="309.50504"
         r="61.42857" />
      <circle
         id="path3037-2"
         style="fill:#808080;fill-opacity:1;fill-rule:nonzero;stroke:#ffffff;stroke-width:3.68571424;stroke-linecap:butt;stroke-linejoin:round;stroke-miterlimit:4;stroke-dasharray:none;stroke-opacity:1"
         transform="matrix(0.78735253,0.20638863,-0.20638863,0.78735253,747.73935,1995.0332)"
         cx="-255.71428"
         cy="309.50504"
         r="61.42857" />
      <circle
         transform="matrix(0.31494099,0.08255545,-0.08255545,0.31494099,588.60998,2109.581)"
         style="fill:#333333;fill-opacity:1;fill-rule:nonzero;stroke:none"
         id="path3039-9"
         cx="-255.71428"
         cy="309.50504"
         r="61.42857" />
      <path
         inkscape:connector-curvature="0"
         id="path3041-3"
         d="m 422.04215,2050.4684 194.84565,51.0749"
         style="fill:none;stroke:#ffffff;stroke-width:6;stroke-linecap:butt;stroke-linejoin:miter;stroke-opacity:1" />
      <rect
         y="-998.4068"
         x="1806.4424"
         height="40.468388"
         width="20.000004"
         id="rect2991-3-9"
         style="fill:#000000;fill-opacity:1;fill-rule:nonzero;stroke:none"
         transform="rotate(104.68846)" />
      <ellipse
         transform="matrix(0.64487923,0.16904212,-0.25356318,0.96731883,693.51915,1670.2305)"
         id="path3061-4"
         style="fill:#000000;fill-opacity:1;fill-rule:nonzero;stroke:none"
         cx="-174.28572"
         cy="361.64789"
         rx="38.57143"
         ry="15" />
      <path
         sodipodi:nodetypes="ccccc"
         inkscape:connector-curvature="0"
         id="rect3067-7"
         d="m 548.41965,1981.7985 95.6689,25.0776 -28.27956,42.8763 -63.77927,-16.7185 z"
         style="fill:#000000;fill-opacity:1;fill-rule:nonzero;stroke:none" />
      <rect
         transform="rotate(14.688463)"
         y="1728.2213"
         x="1028.887"
         height="49.925793"
         width="107.14286"
         id="rect3070-8"
         style="fill:#000000;fill-opacity:1;fill-rule:nonzero;stroke:none" />
      <rect
         transform="rotate(14.688463)"
         style="fill:#808080;fill-opacity:1;fill-rule:nonzero;stroke:none"
         id="rect3072-4"
         width="107.14286"
         height="11.521338"
         x="1028.887"
         y="1747.2483" />
      <path
         style="fill:none;stroke:#ffffff;stroke-width:1.30930853;stroke-linecap:butt;stroke-linejoin:miter;stroke-opacity:1"
         d="m 556.78267,1984.9734 78.4608,20.5669"
         id="path3074-5"
         inkscape:connector-curvature="0" />
      <path
         sodipodi:nodetypes="cc"
         inkscape:connector-curvature="0"
         id="path4296-4"
         d="m 220.56254,1905.3761 c -2.26633,-44.7102 -15.22077,-62.2497 -53.64104,-73.1777"
         style="fill:none;stroke:#000000;stroke-width:10;stroke-linecap:round;stroke-linejoin:miter;stroke-opacity:1" />
      <path
         style="fill:none;stroke:#000000;stroke-width:10;stroke-linecap:round;stroke-linejoin:miter;stroke-opacity:1"
         d="m 239.87423,1889.6969 c -2.26633,-44.7103 -15.22077,-62.2497 -53.64104,-73.1777"
         id="path5066-9"
         inkscape:connector-curvature="0"
         sodipodi:nodetypes="cc" />
    </g>
  </g>
</svg>
