{
    "accessors" : [
        {
            "bufferView" : 0,
            "componentType" : 5123,
            "count" : 2100,
            "max" : [
                383
            ],
            "min" : [
                0
            ],
            "type" : "SCALAR"
        },
        {
            "bufferView" : 1,
            "componentType" : 5126,
            "count" : 384,
            "max" : [
                0.9999999403953552,
                0.9999997019767761,
                0.04999976232647896
            ],
            "min" : [
                -1.0,
                -1.000000238418579,
                -0.04999976232647896
            ],
            "type" : "VEC3"
        },
        {
            "bufferView" : 2,
            "componentType" : 5126,
            "count" : 384,
            "max" : [
                1.0,
                1.0,
                0.729819655418396
            ],
            "min" : [
                -1.0,
                -1.0,
                -0.729819655418396
            ],
            "type" : "VEC3"
        },
        {
            "bufferView" : 3,
            "componentType" : 5126,
            "count" : 384,
            "max" : [
                0.9603111147880554,
                0.9607764184474945
            ],
            "min" : [
                0.03968888521194458,
                0.046303391456604004
            ],
            "type" : "VEC2"
        },
        {
            "bufferView" : 4,
            "componentType" : 5123,
            "count" : 384,
            "max" : [
                0,
                0,
                0,
                0
            ],
            "min" : [
                0,
                0,
                0,
                0
            ],
            "type" : "VEC4"
        },
        {
            "bufferView" : 5,
            "componentType" : 5126,
            "count" : 384,
            "max" : [
                1.0,
                0.0,
                0.0,
                0.0
            ],
            "min" : [
                1.0,
                0.0,
                0.0,
                0.0
            ],
            "type" : "VEC4"
        },
        {
            "bufferView" : 6,
            "componentType" : 5126,
            "count" : 1,
            "max" : [
                1.0,
                0.0,
                0.0,
                0.0,
                0.0,
                1.0,
                0.0,
                0.0,
                0.0,
                0.0,
                1.0,
                0.0,
                0.0,
                1.0,
                0.0,
                1.0
            ],
            "min" : [
                1.0,
                0.0,
                0.0,
                0.0,
                0.0,
                1.0,
                0.0,
                0.0,
                0.0,
                0.0,
                1.0,
                0.0,
                0.0,
                1.0,
                0.0,
                1.0
            ],
            "type" : "MAT4"
        },
        {
            "bufferView" : 7,
            "componentType" : 5126,
            "count" : 1,
            "max" : [
                0.0
            ],
            "min" : [
                0.0
            ],
            "type" : "SCALAR"
        },
        {
            "bufferView" : 8,
            "componentType" : 5126,
            "count" : 1,
            "max" : [
                0.0,
                -1.0,
                0.0
            ],
            "min" : [
                0.0,
                -1.0,
                0.0
            ],
            "type" : "VEC3"
        },
        {
            "bufferView" : 9,
            "componentType" : 5126,
            "count" : 1,
            "max" : [
                0.0
            ],
            "min" : [
                0.0
            ],
            "type" : "SCALAR"
        },
        {
            "bufferView" : 10,
            "componentType" : 5126,
            "count" : 1,
            "max" : [
                0.0,
                0.0,
                0.0,
                1.0
            ],
            "min" : [
                0.0,
                0.0,
                0.0,
                1.0
            ],
            "type" : "VEC4"
        },
        {
            "bufferView" : 11,
            "componentType" : 5126,
            "count" : 1,
            "max" : [
                0.0
            ],
            "min" : [
                0.0
            ],
            "type" : "SCALAR"
        },
        {
            "bufferView" : 12,
            "componentType" : 5126,
            "count" : 1,
            "max" : [
                1.0,
                1.0,
                1.0
            ],
            "min" : [
                1.0,
                1.0,
                1.0
            ],
            "type" : "VEC3"
        }
    ],
    "animations" : [
        {
            "channels" : [
                {
                    "sampler" : 0,
                    "target" : {
                        "node" : 2,
                        "path" : "translation"
                    }
                },
                {
                    "sampler" : 1,
                    "target" : {
                        "node" : 2,
                        "path" : "rotation"
                    }
                },
                {
                    "sampler" : 2,
                    "target" : {
                        "node" : 2,
                        "path" : "scale"
                    }
                }
            ],
            "name" : "ArmatureAction",
            "samplers" : [
                {
                    "input" : 7,
                    "interpolation" : "LINEAR",
                    "output" : 8
                },
                {
                    "input" : 9,
                    "interpolation" : "LINEAR",
                    "output" : 10
                },
                {
                    "input" : 11,
                    "interpolation" : "LINEAR",
                    "output" : 12
                }
            ]
        }
    ],
    "asset" : {
        "generator" : "Khronos Blender glTF 2.0 exporter",
        "version" : "2.0"
    },
    "bufferViews" : [
        {
            "buffer" : 0,
            "byteLength" : 4200,
            "byteOffset" : 0,
            "target" : 34963
        },
        {
            "buffer" : 0,
            "byteLength" : 4608,
            "byteOffset" : 4200,
            "target" : 34962
        },
        {
            "buffer" : 0,
            "byteLength" : 4608,
            "byteOffset" : 8808,
            "target" : 34962
        },
        {
            "buffer" : 0,
            "byteLength" : 3072,
            "byteOffset" : 13416,
            "target" : 34962
        },
        {
            "buffer" : 0,
            "byteLength" : 3072,
            "byteOffset" : 16488,
            "target" : 34962
        },
        {
            "buffer" : 0,
            "byteLength" : 6144,
            "byteOffset" : 19560,
            "target" : 34962
        },
        {
            "buffer" : 0,
            "byteLength" : 64,
            "byteOffset" : 25704
        },
        {
            "buffer" : 0,
            "byteLength" : 4,
            "byteOffset" : 25768
        },
        {
            "buffer" : 0,
            "byteLength" : 12,
            "byteOffset" : 25772
        },
        {
            "buffer" : 0,
            "byteLength" : 4,
            "byteOffset" : 25784
        },
        {
            "buffer" : 0,
            "byteLength" : 16,
            "byteOffset" : 25788
        },
        {
            "buffer" : 0,
            "byteLength" : 4,
            "byteOffset" : 25804
        },
        {
            "buffer" : 0,
            "byteLength" : 12,
            "byteOffset" : 25808
        }
    ],
    "buffers" : [
        {
            "byteLength" : 25820,
            "uri" : "coin.bin"
        }
    ],
    "images" : [
        {
            "name" : "coin",
            "uri" : "coin.jpg"
        }
    ],
    "materials" : [
        {
            "name" : "Material.001",
            "pbrMetallicRoughness" : {
                "baseColorFactor" : [
                    0.800000011920929,
                    0.800000011920929,
                    0.800000011920929,
                    1.0
                ],
                "baseColorTexture" : {
                    "index" : 0
                },
                "metallicFactor" : 0.0
            }
        }
    ],
    "meshes" : [
        {
            "name" : "Circle",
            "primitives" : [
                {
                    "attributes" : {
                        "JOINTS_0" : 4,
                        "NORMAL" : 2,
                        "POSITION" : 1,
                        "TEXCOORD_0" : 3,
                        "WEIGHTS_0" : 5
                    },
                    "indices" : 0,
                    "material" : 0
                }
            ]
        }
    ],
    "nodes" : [
        {
            "children" : [
                1,
                2
            ],
            "name" : "Armature"
        },
        {
            "mesh" : 0,
            "name" : "Circle",
            "skin" : 0
        },
        {
            "name" : "Armature_Bone",
            "translation" : [
                0.0,
                -1.0,
                0.0
            ]
        }
    ],
    "samplers" : [
        {}
    ],
    "scene" : 0,
    "scenes" : [
        {
            "name" : "Scene",
            "nodes" : [
                0
            ]
        }
    ],
    "skins" : [
        {
            "inverseBindMatrices" : 6,
            "joints" : [
                2
            ],
            "skeleton" : 0
        }
    ],
    "textures" : [
        {
            "sampler" : 0,
            "source" : 0
        }
    ]
}
