{
    "accessors" : [
        {
            "bufferView" : 0,
            "componentType" : 5123,
            "count" : 228,
            "max" : [
                43
            ],
            "min" : [
                0
            ],
            "type" : "SCALAR"
        },
        {
            "bufferView" : 1,
            "componentType" : 5126,
            "count" : 44,
            "max" : [
                0.8723280429840088,
                2.1835904121398926,
                0.5247663855552673
            ],
            "min" : [
                -0.6656750440597534,
                0.0,
                -0.13514703512191772
            ],
            "type" : "VEC3"
        },
        {
            "bufferView" : 2,
            "componentType" : 5126,
            "count" : 44,
            "max" : [
                0.9706411957740784,
                0.8053529262542725,
                0.9840693473815918
            ],
            "min" : [
                -0.9696645736694336,
                -0.6033509373664856,
                -0.9533677101135254
            ],
            "type" : "VEC3"
        },
        {
            "bufferView" : 3,
            "componentType" : 5126,
            "count" : 44,
            "max" : [
                1.0,
                0.0,
                -0.0,
                -1.0
            ],
            "min" : [
                1.0,
                0.0,
                -0.0,
                -1.0
            ],
            "type" : "VEC4"
        },
        {
            "bufferView" : 4,
            "componentType" : 5126,
            "count" : 44,
            "max" : [
                0.0,
                1.0
            ],
            "min" : [
                0.0,
                1.0
            ],
            "type" : "VEC2"
        }
    ],
    "asset" : {
        "generator" : "Khronos Blender glTF 2.0 exporter",
        "version" : "2.0"
    },
    "bufferViews" : [
        {
            "buffer" : 0,
            "byteLength" : 456,
            "byteOffset" : 0,
            "target" : 34963
        },
        {
            "buffer" : 0,
            "byteLength" : 528,
            "byteOffset" : 456,
            "target" : 34962
        },
        {
            "buffer" : 0,
            "byteLength" : 528,
            "byteOffset" : 984,
            "target" : 34962
        },
        {
            "buffer" : 0,
            "byteLength" : 704,
            "byteOffset" : 1512,
            "target" : 34962
        },
        {
            "buffer" : 0,
            "byteLength" : 352,
            "byteOffset" : 2216,
            "target" : 34962
        }
    ],
    "buffers" : [
        {
            "byteLength" : 2568,
            "uri" : "grass.bin"
        }
    ],
    "materials" : [
        {
            "name" : "leaf.001",
            "pbrMetallicRoughness" : {
                "baseColorFactor" : [
                    0.02624122053384781,
                    0.24620139598846436,
                    0.02624122053384781,
                    1.0
                ],
                "metallicFactor" : 0.0
            }
        },
        {
            "name" : "rock.001",
            "pbrMetallicRoughness" : {
                "baseColorFactor" : [
                    0.10224173218011856,
                    0.17788845300674438,
                    0.2195262312889099,
                    1.0
                ],
                "metallicFactor" : 0.0
            }
        },
        {
            "name" : "wood-inner.001",
            "pbrMetallicRoughness" : {
                "baseColorFactor" : [
                    0.3864295184612274,
                    0.2015562802553177,
                    0.07818741351366043,
                    1.0
                ],
                "metallicFactor" : 0.0
            }
        },
        {
            "name" : "wood.001",
            "pbrMetallicRoughness" : {
                "baseColorFactor" : [
                    0.18447501957416534,
                    0.07227185368537903,
                    0.023153362795710564,
                    1.0
                ],
                "metallicFactor" : 0.0
            }
        }
    ],
    "meshes" : [
        {
            "name" : "Cylinder.000",
            "primitives" : [
                {
                    "attributes" : {
                        "NORMAL" : 2,
                        "POSITION" : 1,
                        "TANGENT" : 3,
                        "TEXCOORD_0" : 4
                    },
                    "indices" : 0,
                    "material" : 0
                }
            ]
        }
    ],
    "nodes" : [
        {
            "mesh" : 0,
            "name" : "Cylinder"
        }
    ],
    "scene" : 0,
    "scenes" : [
        {
            "name" : "Scene",
            "nodes" : [
                0
            ]
        }
    ]
}
