{
    "accessors" : [
        {
            "bufferView" : 0,
            "componentType" : 5123,
            "count" : 240,
            "max" : [
                41
            ],
            "min" : [
                0
            ],
            "type" : "SCALAR"
        },
        {
            "bufferView" : 1,
            "componentType" : 5126,
            "count" : 42,
            "max" : [
                1.4951156377792358,
                2.301236867904663,
                1.2416088581085205
            ],
            "min" : [
                -1.4157721996307373,
                0.0,
                -1.258967399597168
            ],
            "type" : "VEC3"
        },
        {
            "bufferView" : 2,
            "componentType" : 5126,
            "count" : 42,
            "max" : [
                0.921140193939209,
                0.9414044618606567,
                0.9682912826538086
            ],
            "min" : [
                -0.9335612058639526,
                -1.0,
                -0.9847712516784668
            ],
            "type" : "VEC3"
        },
        {
            "bufferView" : 3,
            "componentType" : 5126,
            "count" : 42,
            "max" : [
                1.0,
                0.0,
                -0.0,
                -1.0
            ],
            "min" : [
                1.0,
                0.0,
                -0.0,
                -1.0
            ],
            "type" : "VEC4"
        },
        {
            "bufferView" : 4,
            "componentType" : 5126,
            "count" : 42,
            "max" : [
                0.0,
                1.0
            ],
            "min" : [
                0.0,
                1.0
            ],
            "type" : "VEC2"
        }
    ],
    "asset" : {
        "generator" : "Khronos Blender glTF 2.0 exporter",
        "version" : "2.0"
    },
    "bufferViews" : [
        {
            "buffer" : 0,
            "byteLength" : 480,
            "byteOffset" : 0,
            "target" : 34963
        },
        {
            "buffer" : 0,
            "byteLength" : 504,
            "byteOffset" : 480,
            "target" : 34962
        },
        {
            "buffer" : 0,
            "byteLength" : 504,
            "byteOffset" : 984,
            "target" : 34962
        },
        {
            "buffer" : 0,
            "byteLength" : 672,
            "byteOffset" : 1488,
            "target" : 34962
        },
        {
            "buffer" : 0,
            "byteLength" : 336,
            "byteOffset" : 2160,
            "target" : 34962
        }
    ],
    "buffers" : [
        {
            "byteLength" : 2496,
            "uri" : "rock-002.bin"
        }
    ],
    "materials" : [
        {
            "name" : "leaf.002",
            "pbrMetallicRoughness" : {
                "baseColorFactor" : [
                    0.02624122053384781,
                    0.24620139598846436,
                    0.02624122053384781,
                    1.0
                ],
                "metallicFactor" : 0.0
            }
        },
        {
            "name" : "rock.002",
            "pbrMetallicRoughness" : {
                "baseColorFactor" : [
                    0.10224173218011856,
                    0.17788845300674438,
                    0.2195262312889099,
                    1.0
                ],
                "metallicFactor" : 0.0
            }
        },
        {
            "name" : "wood-inner.002",
            "pbrMetallicRoughness" : {
                "baseColorFactor" : [
                    0.3864295184612274,
                    0.2015562802553177,
                    0.07818741351366043,
                    1.0
                ],
                "metallicFactor" : 0.0
            }
        },
        {
            "name" : "wood.002",
            "pbrMetallicRoughness" : {
                "baseColorFactor" : [
                    0.18447501957416534,
                    0.07227185368537903,
                    0.023153362795710564,
                    1.0
                ],
                "metallicFactor" : 0.0
            }
        }
    ],
    "meshes" : [
        {
            "name" : "Cylinder.002",
            "primitives" : [
                {
                    "attributes" : {
                        "NORMAL" : 2,
                        "POSITION" : 1,
                        "TANGENT" : 3,
                        "TEXCOORD_0" : 4
                    },
                    "indices" : 0,
                    "material" : 1
                }
            ]
        }
    ],
    "nodes" : [
        {
            "mesh" : 0,
            "name" : "Cylinder.001"
        }
    ],
    "scene" : 0,
    "scenes" : [
        {
            "name" : "Scene",
            "nodes" : [
                0
            ]
        }
    ]
}
