{
    "accessors" : [
        {
            "bufferView" : 0,
            "componentType" : 5123,
            "count" : 957,
            "max" : [
                413
            ],
            "min" : [
                0
            ],
            "type" : "SCALAR"
        },
        {
            "bufferView" : 1,
            "componentType" : 5126,
            "count" : 414,
            "max" : [
                1.6729092597961426,
                2.13844633102417,
                1.5889453887939453
            ],
            "min" : [
                -1.6640254259109497,
                -0.028464816510677338,
                -1.8071577548980713
            ],
            "type" : "VEC3"
        },
        {
            "bufferView" : 2,
            "componentType" : 5126,
            "count" : 414,
            "max" : [
                0.9924314022064209,
                0.9703665375709534,
                0.9879146814346313
            ],
            "min" : [
                -0.9968870878219604,
                -0.9801324605941772,
                -0.9859920144081116
            ],
            "type" : "VEC3"
        },
        {
            "bufferView" : 3,
            "componentType" : 5126,
            "count" : 414,
            "max" : [
                0.9999999403953552,
                1.0
            ],
            "min" : [
                0.0,
                0.0
            ],
            "type" : "VEC2"
        },
        {
            "bufferView" : 4,
            "componentType" : 5123,
            "count" : 414,
            "max" : [
                0,
                0,
                0,
                0
            ],
            "min" : [
                0,
                0,
                0,
                0
            ],
            "type" : "VEC4"
        },
        {
            "bufferView" : 5,
            "componentType" : 5126,
            "count" : 414,
            "max" : [
                1.0,
                0.0,
                0.0,
                0.0
            ],
            "min" : [
                1.0,
                0.0,
                0.0,
                0.0
            ],
            "type" : "VEC4"
        },
        {
            "bufferView" : 6,
            "componentType" : 5123,
            "count" : 15,
            "max" : [
                6
            ],
            "min" : [
                0
            ],
            "type" : "SCALAR"
        },
        {
            "bufferView" : 7,
            "componentType" : 5126,
            "count" : 7,
            "max" : [
                0.43713095784187317,
                2.13844633102417,
                0.4207834005355835
            ],
            "min" : [
                -0.4509628117084503,
                2.061256170272827,
                -0.39177757501602173
            ],
            "type" : "VEC3"
        },
        {
            "bufferView" : 8,
            "componentType" : 5126,
            "count" : 7,
            "max" : [
                0.3412579596042633,
                0.9665212035179138,
                0.3558763265609741
            ],
            "min" : [
                -0.25647756457328796,
                0.9291665554046631,
                -0.3412579596042633
            ],
            "type" : "VEC3"
        },
        {
            "bufferView" : 9,
            "componentType" : 5126,
            "count" : 7,
            "max" : [
                0.7861305475234985,
                1.0
            ],
            "min" : [
                0.5284673571586609,
                0.7385270595550537
            ],
            "type" : "VEC2"
        },
        {
            "bufferView" : 10,
            "componentType" : 5123,
            "count" : 7,
            "max" : [
                0,
                0,
                0,
                0
            ],
            "min" : [
                0,
                0,
                0,
                0
            ],
            "type" : "VEC4"
        },
        {
            "bufferView" : 11,
            "componentType" : 5126,
            "count" : 7,
            "max" : [
                1.0,
                0.0,
                0.0,
                0.0
            ],
            "min" : [
                1.0,
                0.0,
                0.0,
                0.0
            ],
            "type" : "VEC4"
        },
        {
            "bufferView" : 12,
            "componentType" : 5123,
            "count" : 612,
            "max" : [
                103
            ],
            "min" : [
                0
            ],
            "type" : "SCALAR"
        },
        {
            "bufferView" : 13,
            "componentType" : 5126,
            "count" : 104,
            "max" : [
                2.586876153945923,
                7.953866004943848,
                2.586876153945923
            ],
            "min" : [
                -2.586876153945923,
                1.3061151504516602,
                -2.586876153945923
            ],
            "type" : "VEC3"
        },
        {
            "bufferView" : 14,
            "componentType" : 5126,
            "count" : 104,
            "max" : [
                0.9409161806106567,
                0.7278054356575012,
                0.9409161806106567
            ],
            "min" : [
                -0.9409161806106567,
                -0.999664306640625,
                -0.9409161806106567
            ],
            "type" : "VEC3"
        },
        {
            "bufferView" : 15,
            "componentType" : 5126,
            "count" : 104,
            "max" : [
                0.0,
                1.0
            ],
            "min" : [
                0.0,
                1.0
            ],
            "type" : "VEC2"
        },
        {
            "bufferView" : 16,
            "componentType" : 5123,
            "count" : 104,
            "max" : [
                0,
                0,
                0,
                0
            ],
            "min" : [
                0,
                0,
                0,
                0
            ],
            "type" : "VEC4"
        },
        {
            "bufferView" : 17,
            "componentType" : 5126,
            "count" : 104,
            "max" : [
                0.0,
                0.0,
                0.0,
                0.0
            ],
            "min" : [
                0.0,
                0.0,
                0.0,
                0.0
            ],
            "type" : "VEC4"
        },
        {
            "bufferView" : 18,
            "componentType" : 5126,
            "count" : 1,
            "max" : [
                1.0,
                0.0,
                0.0,
                0.0,
                0.0,
                1.0,
                0.0,
                0.0,
                0.0,
                0.0,
                1.0,
                0.0,
                0.0,
                0.0,
                0.0,
                1.0
            ],
            "min" : [
                1.0,
                0.0,
                0.0,
                0.0,
                0.0,
                1.0,
                0.0,
                0.0,
                0.0,
                0.0,
                1.0,
                0.0,
                0.0,
                0.0,
                0.0,
                1.0
            ],
            "type" : "MAT4"
        },
        {
            "bufferView" : 19,
            "componentType" : 5126,
            "count" : 1,
            "max" : [
                0.0
            ],
            "min" : [
                0.0
            ],
            "type" : "SCALAR"
        },
        {
            "bufferView" : 20,
            "componentType" : 5126,
            "count" : 1,
            "max" : [
                0.0,
                0.0,
                0.0
            ],
            "min" : [
                0.0,
                0.0,
                0.0
            ],
            "type" : "VEC3"
        },
        {
            "bufferView" : 21,
            "componentType" : 5126,
            "count" : 1,
            "max" : [
                0.0
            ],
            "min" : [
                0.0
            ],
            "type" : "SCALAR"
        },
        {
            "bufferView" : 22,
            "componentType" : 5126,
            "count" : 1,
            "max" : [
                0.0,
                0.0,
                0.0,
                1.0
            ],
            "min" : [
                0.0,
                0.0,
                0.0,
                1.0
            ],
            "type" : "VEC4"
        },
        {
            "bufferView" : 23,
            "componentType" : 5126,
            "count" : 1,
            "max" : [
                0.0
            ],
            "min" : [
                0.0
            ],
            "type" : "SCALAR"
        },
        {
            "bufferView" : 24,
            "componentType" : 5126,
            "count" : 1,
            "max" : [
                1.0,
                1.0,
                1.0
            ],
            "min" : [
                1.0,
                1.0,
                1.0
            ],
            "type" : "VEC3"
        }
    ],
    "animations" : [
        {
            "channels" : [
                {
                    "sampler" : 0,
                    "target" : {
                        "node" : 2,
                        "path" : "translation"
                    }
                },
                {
                    "sampler" : 1,
                    "target" : {
                        "node" : 2,
                        "path" : "rotation"
                    }
                },
                {
                    "sampler" : 2,
                    "target" : {
                        "node" : 2,
                        "path" : "scale"
                    }
                }
            ],
            "name" : "ArmatureAction",
            "samplers" : [
                {
                    "input" : 19,
                    "interpolation" : "LINEAR",
                    "output" : 20
                },
                {
                    "input" : 21,
                    "interpolation" : "LINEAR",
                    "output" : 22
                },
                {
                    "input" : 23,
                    "interpolation" : "LINEAR",
                    "output" : 24
                }
            ]
        }
    ],
    "asset" : {
        "generator" : "Khronos Blender glTF 2.0 exporter",
        "version" : "2.0"
    },
    "bufferViews" : [
        {
            "buffer" : 0,
            "byteLength" : 1914,
            "byteOffset" : 0,
            "target" : 34963
        },
        {
            "buffer" : 0,
            "byteLength" : 4968,
            "byteOffset" : 1916,
            "target" : 34962
        },
        {
            "buffer" : 0,
            "byteLength" : 4968,
            "byteOffset" : 6884,
            "target" : 34962
        },
        {
            "buffer" : 0,
            "byteLength" : 3312,
            "byteOffset" : 11852,
            "target" : 34962
        },
        {
            "buffer" : 0,
            "byteLength" : 3312,
            "byteOffset" : 15164,
            "target" : 34962
        },
        {
            "buffer" : 0,
            "byteLength" : 6624,
            "byteOffset" : 18476,
            "target" : 34962
        },
        {
            "buffer" : 0,
            "byteLength" : 30,
            "byteOffset" : 25100,
            "target" : 34963
        },
        {
            "buffer" : 0,
            "byteLength" : 84,
            "byteOffset" : 25132,
            "target" : 34962
        },
        {
            "buffer" : 0,
            "byteLength" : 84,
            "byteOffset" : 25216,
            "target" : 34962
        },
        {
            "buffer" : 0,
            "byteLength" : 56,
            "byteOffset" : 25300,
            "target" : 34962
        },
        {
            "buffer" : 0,
            "byteLength" : 56,
            "byteOffset" : 25356,
            "target" : 34962
        },
        {
            "buffer" : 0,
            "byteLength" : 112,
            "byteOffset" : 25412,
            "target" : 34962
        },
        {
            "buffer" : 0,
            "byteLength" : 1224,
            "byteOffset" : 25524,
            "target" : 34963
        },
        {
            "buffer" : 0,
            "byteLength" : 1248,
            "byteOffset" : 26748,
            "target" : 34962
        },
        {
            "buffer" : 0,
            "byteLength" : 1248,
            "byteOffset" : 27996,
            "target" : 34962
        },
        {
            "buffer" : 0,
            "byteLength" : 832,
            "byteOffset" : 29244,
            "target" : 34962
        },
        {
            "buffer" : 0,
            "byteLength" : 832,
            "byteOffset" : 30076,
            "target" : 34962
        },
        {
            "buffer" : 0,
            "byteLength" : 1664,
            "byteOffset" : 30908,
            "target" : 34962
        },
        {
            "buffer" : 0,
            "byteLength" : 64,
            "byteOffset" : 32572
        },
        {
            "buffer" : 0,
            "byteLength" : 4,
            "byteOffset" : 32636
        },
        {
            "buffer" : 0,
            "byteLength" : 12,
            "byteOffset" : 32640
        },
        {
            "buffer" : 0,
            "byteLength" : 4,
            "byteOffset" : 32652
        },
        {
            "buffer" : 0,
            "byteLength" : 16,
            "byteOffset" : 32656
        },
        {
            "buffer" : 0,
            "byteLength" : 4,
            "byteOffset" : 32672
        },
        {
            "buffer" : 0,
            "byteLength" : 12,
            "byteOffset" : 32676
        }
    ],
    "buffers" : [
        {
            "byteLength" : 32688,
            "uri" : "tree-002.bin"
        }
    ],
    "materials" : [
        {
            "name" : "leaf",
            "pbrMetallicRoughness" : {
                "baseColorFactor" : [
                    0.02624122053384781,
                    0.24620139598846436,
                    0.02624122053384781,
                    1.0
                ],
                "metallicFactor" : 0.0
            }
        },
        {
            "name" : "wood",
            "pbrMetallicRoughness" : {
                "baseColorFactor" : [
                    0.18447501957416534,
                    0.07227185368537903,
                    0.023153362795710564,
                    1.0
                ],
                "metallicFactor" : 0.0
            }
        },
        {
            "name" : "wood-inner",
            "pbrMetallicRoughness" : {
                "baseColorFactor" : [
                    0.3864295184612274,
                    0.2015562802553177,
                    0.07818741351366043,
                    1.0
                ],
                "metallicFactor" : 0.0
            }
        }
    ],
    "meshes" : [
        {
            "name" : "Cylinder.001",
            "primitives" : [
                {
                    "attributes" : {
                        "JOINTS_0" : 4,
                        "NORMAL" : 2,
                        "POSITION" : 1,
                        "TEXCOORD_0" : 3,
                        "WEIGHTS_0" : 5
                    },
                    "indices" : 0,
                    "material" : 1
                },
                {
                    "attributes" : {
                        "JOINTS_0" : 10,
                        "NORMAL" : 8,
                        "POSITION" : 7,
                        "TEXCOORD_0" : 9,
                        "WEIGHTS_0" : 11
                    },
                    "indices" : 6,
                    "material" : 2
                },
                {
                    "attributes" : {
                        "JOINTS_0" : 16,
                        "NORMAL" : 14,
                        "POSITION" : 13,
                        "TEXCOORD_0" : 15,
                        "WEIGHTS_0" : 17
                    },
                    "indices" : 12,
                    "material" : 0
                }
            ]
        }
    ],
    "nodes" : [
        {
            "children" : [
                1,
                2
            ],
            "name" : "Armature"
        },
        {
            "mesh" : 0,
            "name" : "Cylinder",
            "skin" : 0
        },
        {
            "name" : "Armature_Bone"
        }
    ],
    "scene" : 0,
    "scenes" : [
        {
            "name" : "Scene",
            "nodes" : [
                0
            ]
        }
    ],
    "skins" : [
        {
            "inverseBindMatrices" : 18,
            "joints" : [
                2
            ],
            "skeleton" : 0
        }
    ]
}
